<?xml version="1.0" encoding="utf-8"?>
<!-- Generator: Adobe Illustrator 23.0.1, SVG Export Plug-In . SVG Version: 6.00 Build 0)  -->
<svg version="1.1" id="Layer_1" xmlns="http://www.w3.org/2000/svg" xmlns:xlink="http://www.w3.org/1999/xlink" x="0px" y="0px"
	 viewBox="0 0 512 279.6" style="enable-background:new 0 0 512 279.6;" xml:space="preserve">
<g>
	<path d="M494.8,125.2l-50.6-49.4C394.1,26.9,327.3,0,256,0S117.9,26.9,67.8,75.8l-50.6,49.4c-11.3,12.3-4.3,25.4,0,29.2l50.6,49.4
		c50.1,48.9,116.9,75.8,188.2,75.8s138.1-26.9,188.2-75.8l50.6-49.4C498.8,150.6,506.5,138,494.8,125.2L494.8,125.2z M256,209.6
		c-38.5,0-69.8-31.3-69.8-69.8S217.5,70,256,70s69.8,31.3,69.8,69.8S294.5,209.6,256,209.6z M60.7,139.8L96.4,105
		c27-26.4,59.8-45.2,95.7-55.4c-28.2,20.1-46.6,53-46.6,90.1s18.4,70.1,46.6,90.1c-35.9-10.2-68.7-29-95.7-55.3L60.7,139.8
		L60.7,139.8z M415.7,174.6c-27,26.3-59.8,45.1-95.7,55.3c28.2-20.1,46.6-53,46.6-90.1c0-37.2-18.4-70.1-46.6-90.1
		c35.9,10.2,68.7,29,95.7,55.4l35.6,34.8L415.7,174.6L415.7,174.6z"/>
</g>
</svg>
